<?xml version="1.0" standalone="no"?><!DOCTYPE svg PUBLIC "-//W3C//DTD SVG 1.1//EN" "http://www.w3.org/Graphics/SVG/1.1/DTD/svg11.dtd"><svg t="1590246858582" class="icon" viewBox="0 0 1098 1024" version="1.1" xmlns="http://www.w3.org/2000/svg" p-id="2481" xmlns:xlink="http://www.w3.org/1999/xlink" width="214.453125" height="200"><defs><style type="text/css"></style></defs><path d="M438.857143 658.285714l219.428571 0 0-54.857143-73.142857 0 0-256-65.142857 0-84.571429 78.285714 44 45.714286q24-21.142857 31.428571-32.571429l1.142857 0 0 164.571429-73.142857 0 0 54.857143zm292.571429-146.285714q0 40-12 81.142857t-34 76.571429-58 57.714286-78.857143 22.285714-78.857143-22.285714-58-57.714286-34-76.571429-12-81.142857 12-81.142857 34-76.571429 58-57.714286 78.857143-22.285714 78.857143 22.285714 58 57.714286 34 76.571429 12 81.142857zm292.571429 146.285714l0-292.571429q-60.571429 0-103.428571-42.857143t-42.857143-103.428571l-658.285714 0q0 60.571429-42.857143 103.428571t-103.428571 42.857143l0 292.571429q60.571429 0 103.428571 42.857143t42.857143 103.428571l658.285714 0q0-60.571429 42.857143-103.428571t103.428571-42.857143zm73.142857-475.428571l0 658.285714q0 14.857143-10.857143 25.714286t-25.714286 10.857143l-1024 0q-14.857143 0-25.714286-10.857143t-10.857143-25.714286l0-658.285714q0-14.857143 10.857143-25.714286t25.714286-10.857143l1024 0q14.857143 0 25.714286 10.857143t10.857143 25.714286z" p-id="2482"></path></svg>