<?xml version="1.0" standalone="no"?><!DOCTYPE svg PUBLIC "-//W3C//DTD SVG 1.1//EN" "http://www.w3.org/Graphics/SVG/1.1/DTD/svg11.dtd"><svg t="1590151781530" class="icon" viewBox="0 0 1024 1024" version="1.1" xmlns="http://www.w3.org/2000/svg" p-id="3975" xmlns:xlink="http://www.w3.org/1999/xlink" width="200" height="200"><defs><style type="text/css"></style></defs><path d="M884.760772 64.687278 139.239228 64.687278c-41.173748 0-74.55195 33.378202-74.55195 74.55195l0 745.521544c0 41.173748 33.378202 74.55195 74.55195 74.55195l745.521544 0c41.173748 0 74.55195-33.378202 74.55195-74.55195L959.312722 139.239228C959.312722 98.06548 925.93452 64.687278 884.760772 64.687278zM698.379874 493.361501 532.22667 493.361501l0 74.55195L698.379874 567.913451l0 37.275975L532.22667 605.189426l0 151.48411-37.275975 0L494.950695 605.190449 325.619102 605.190449l0-37.275975 169.331593 0 0-74.55195L325.619102 493.362524l0-37.275975 99.105159 0-99.105159-205.018374 37.275975 0 99.105159 205.018374 98.721419 0 99.105159-205.018374 37.275975 0-99.105159 205.018374 100.382245 0L698.379874 493.361501z" p-id="3976" fill="#42b983"></path></svg>